<svg width="800" height="600" viewBox="0 0 800 600" xmlns="http://www.w3.org/2000/svg">
  <!-- Background -->
  <rect width="800" height="600" fill="#f0f9ff"/>
  
  <!-- Phone Frame -->
  <rect x="250" y="50" width="300" height="500" rx="25" fill="#1f2937" stroke="#374151" stroke-width="3"/>
  
  <!-- Screen -->
  <rect x="265" y="80" width="270" height="440" rx="15" fill="#ffffff"/>
  
  <!-- Status Bar -->
  <rect x="265" y="80" width="270" height="25" fill="#f8fafc"/>
  <text x="275" y="95" font-family="Arial, sans-serif" font-size="10" fill="#1f2937">9:41</text>
  <text x="500" y="95" font-family="Arial, sans-serif" font-size="10" fill="#1f2937">100%</text>
  
  <!-- App Header -->
  <rect x="265" y="105" width="270" height="50" fill="#3b82f6"/>
  <text x="385" y="125" font-family="Arial, sans-serif" font-size="16" font-weight="bold" fill="#ffffff" text-anchor="middle">智能记账</text>
  <text x="385" y="140" font-family="Arial, sans-serif" font-size="10" fill="#dbeafe" text-anchor="middle">AI语音助手</text>
  
  <!-- Balance Card -->
  <rect x="285" y="170" width="230" height="80" fill="#1e40af" rx="12"/>
  <text x="295" y="190" font-family="Arial, sans-serif" font-size="12" fill="#dbeafe">本月余额</text>
  <text x="295" y="215" font-family="Arial, sans-serif" font-size="24" font-weight="bold" fill="#ffffff">¥ 8,456.78</text>
  <text x="295" y="235" font-family="Arial, sans-serif" font-size="10" fill="#93c5fd">收入 ¥12,000 | 支出 ¥3,543</text>
  
  <!-- Voice Input Button -->
  <circle cx="400" cy="280" r="30" fill="#ef4444"/>
  <circle cx="400" cy="280" r="20" fill="#ffffff"/>
  <text x="395" y="285" font-family="Arial, sans-serif" font-size="16" fill="#ef4444">🎤</text>
  <text x="400" y="325" font-family="Arial, sans-serif" font-size="12" fill="#6b7280" text-anchor="middle">点击开始语音记账</text>
  
  <!-- Recent Transactions -->
  <text x="285" y="355" font-family="Arial, sans-serif" font-size="14" font-weight="bold" fill="#1f2937">最近交易</text>
  
  <!-- Transaction Item 1 -->
  <rect x="285" y="365" width="230" height="40" fill="#f8fafc" rx="6"/>
  <circle cx="300" cy="385" r="8" fill="#ef4444"/>
  <text x="295" y="388" font-family="Arial, sans-serif" font-size="8" fill="#ffffff">🍔</text>
  <text x="320" y="380" font-family="Arial, sans-serif" font-size="12" fill="#1f2937">午餐 - 麦当劳</text>
  <text x="320" y="395" font-family="Arial, sans-serif" font-size="10" fill="#6b7280">今天 12:30</text>
  <text x="490" y="388" font-family="Arial, sans-serif" font-size="12" fill="#ef4444" text-anchor="end">-¥45.00</text>
  
  <!-- Transaction Item 2 -->
  <rect x="285" y="410" width="230" height="40" fill="#f0fdf4" rx="6"/>
  <circle cx="300" cy="430" r="8" fill="#10b981"/>
  <text x="295" y="433" font-family="Arial, sans-serif" font-size="8" fill="#ffffff">💰</text>
  <text x="320" y="425" font-family="Arial, sans-serif" font-size="12" fill="#1f2937">工资到账</text>
  <text x="320" y="440" font-family="Arial, sans-serif" font-size="10" fill="#6b7280">昨天 09:00</text>
  <text x="490" y="433" font-family="Arial, sans-serif" font-size="12" fill="#10b981" text-anchor="end">+¥8,000.00</text>
  
  <!-- Transaction Item 3 -->
  <rect x="285" y="455" width="230" height="40" fill="#f8fafc" rx="6"/>
  <circle cx="300" cy="475" r="8" fill="#f59e0b"/>
  <text x="295" y="478" font-family="Arial, sans-serif" font-size="8" fill="#ffffff">🚗</text>
  <text x="320" y="470" font-family="Arial, sans-serif" font-size="12" fill="#1f2937">打车费用</text>
  <text x="320" y="485" font-family="Arial, sans-serif" font-size="10" fill="#6b7280">昨天 18:45</text>
  <text x="490" y="478" font-family="Arial, sans-serif" font-size="12" fill="#ef4444" text-anchor="end">-¥28.50</text>
  
  <!-- Bottom Navigation -->
  <rect x="265" y="500" width="270" height="20" fill="#f1f5f9"/>
  
  <!-- Feature Highlights (Left Side) -->
  <text x="50" y="100" font-family="Arial, sans-serif" font-size="20" font-weight="bold" fill="#1f2937">核心功能</text>
  
  <!-- Feature 1 -->
  <circle cx="70" cy="130" r="15" fill="#3b82f6"/>
  <text x="65" y="135" font-family="Arial, sans-serif" font-size="12" fill="#ffffff">🎤</text>
  <text x="100" y="130" font-family="Arial, sans-serif" font-size="14" font-weight="bold" fill="#1f2937">语音识别</text>
  <text x="100" y="145" font-family="Arial, sans-serif" font-size="12" fill="#6b7280">智能语音输入，快速记录</text>
  
  <!-- Feature 2 -->
  <circle cx="70" cy="180" r="15" fill="#10b981"/>
  <text x="65" y="185" font-family="Arial, sans-serif" font-size="12" fill="#ffffff">🤖</text>
  <text x="100" y="180" font-family="Arial, sans-serif" font-size="14" font-weight="bold" fill="#1f2937">AI 解析</text>
  <text x="100" y="195" font-family="Arial, sans-serif" font-size="12" fill="#6b7280">自动分类和金额识别</text>
  
  <!-- Feature 3 -->
  <circle cx="70" cy="230" r="15" fill="#f59e0b"/>
  <text x="65" y="235" font-family="Arial, sans-serif" font-size="12" fill="#ffffff">📊</text>
  <text x="100" y="230" font-family="Arial, sans-serif" font-size="14" font-weight="bold" fill="#1f2937">数据分析</text>
  <text x="100" y="245" font-family="Arial, sans-serif" font-size="12" fill="#6b7280">可视化图表和趋势分析</text>
  
  <!-- Feature 4 -->
  <circle cx="70" cy="280" r="15" fill="#8b5cf6"/>
  <text x="65" y="285" font-family="Arial, sans-serif" font-size="12" fill="#ffffff">📅</text>
  <text x="100" y="280" font-family="Arial, sans-serif" font-size="14" font-weight="bold" fill="#1f2937">日历视图</text>
  <text x="100" y="295" font-family="Arial, sans-serif" font-size="12" fill="#6b7280">按日期查看收支记录</text>
  
  <!-- Feature 5 -->
  <circle cx="70" cy="330" r="15" fill="#ef4444"/>
  <text x="65" y="335" font-family="Arial, sans-serif" font-size="12" fill="#ffffff">🔗</text>
  <text x="100" y="330" font-family="Arial, sans-serif" font-size="14" font-weight="bold" fill="#1f2937">Notion 集成</text>
  <text x="100" y="345" font-family="Arial, sans-serif" font-size="12" fill="#6b7280">同步到 Notion 数据库</text>
  
  <!-- Tech Stack (Right Side) -->
  <text x="580" y="100" font-family="Arial, sans-serif" font-size="20" font-weight="bold" fill="#1f2937">技术栈</text>
  
  <!-- Flutter -->
  <rect x="580" y="120" width="150" height="40" fill="#0175c2" rx="8"/>
  <text x="590" y="135" font-family="Arial, sans-serif" font-size="12" fill="#ffffff">Flutter</text>
  <text x="590" y="150" font-family="Arial, sans-serif" font-size="10" fill="#87ceeb">跨平台移动开发</text>
  
  <!-- Dart -->
  <rect x="580" y="170" width="150" height="40" fill="#00d2b8" rx="8"/>
  <text x="590" y="185" font-family="Arial, sans-serif" font-size="12" fill="#ffffff">Dart</text>
  <text x="590" y="200" font-family="Arial, sans-serif" font-size="10" fill="#b3f5ec">现代编程语言</text>
  
  <!-- AI Engine -->
  <rect x="580" y="220" width="150" height="40" fill="#7c3aed" rx="8"/>
  <text x="590" y="235" font-family="Arial, sans-serif" font-size="12" fill="#ffffff">AI 语义解析</text>
  <text x="590" y="250" font-family="Arial, sans-serif" font-size="10" fill="#ddd6fe">智能文本处理</text>
  
  <!-- Notion API -->
  <rect x="580" y="270" width="150" height="40" fill="#000000" rx="8"/>
  <text x="590" y="285" font-family="Arial, sans-serif" font-size="12" fill="#ffffff">Notion API</text>
  <text x="590" y="300" font-family="Arial, sans-serif" font-size="10" fill="#9ca3af">数据同步集成</text>
  
  <!-- Provider -->
  <rect x="580" y="320" width="150" height="40" fill="#059669" rx="8"/>
  <text x="590" y="335" font-family="Arial, sans-serif" font-size="12" fill="#ffffff">Provider</text>
  <text x="590" y="350" font-family="Arial, sans-serif" font-size="10" fill="#a7f3d0">状态管理</text>
  
  <!-- Charts -->
  <rect x="580" y="370" width="150" height="40" fill="#dc2626" rx="8"/>
  <text x="590" y="385" font-family="Arial, sans-serif" font-size="12" fill="#ffffff">FL Chart</text>
  <text x="590" y="400" font-family="Arial, sans-serif" font-size="10" fill="#fca5a5">图表可视化</text>
  
  <!-- Voice Recognition Indicator -->
  <g opacity="0.7">
    <circle cx="400" cy="280" r="40" fill="none" stroke="#ef4444" stroke-width="2" stroke-dasharray="5,5">
      <animateTransform attributeName="transform" type="rotate" values="0 400 280;360 400 280" dur="3s" repeatCount="indefinite"/>
    </circle>
    <circle cx="400" cy="280" r="50" fill="none" stroke="#ef4444" stroke-width="1" stroke-dasharray="3,3" opacity="0.5">
      <animateTransform attributeName="transform" type="rotate" values="360 400 280;0 400 280" dur="4s" repeatCount="indefinite"/>
    </circle>
  </g>
  
  <!-- Sample Voice Input Text -->
  <rect x="580" y="450" width="150" height="80" fill="#fef3c7" rx="8" stroke="#f59e0b"/>
  <text x="590" y="470" font-family="Arial, sans-serif" font-size="12" font-weight="bold" fill="#92400e">语音示例</text>
  <text x="590" y="485" font-family="Arial, sans-serif" font-size="10" fill="#78350f">"今天中午在麦当劳</text>
  <text x="590" y="500" font-family="Arial, sans-serif" font-size="10" fill="#78350f">花了45块钱吃午餐"</text>
  <text x="590" y="520" font-family="Arial, sans-serif" font-size="9" fill="#a16207">→ 自动识别：餐饮 -¥45</text>
</svg>